<svg xmlns="http://www.w3.org/2000/svg" viewBox="0 0 400 400" role="img" aria-label="XSVO infinite mark">
  <defs>
    <linearGradient id="xsvo-infinite" x1="28" y1="88" x2="372" y2="306" gradientUnits="userSpaceOnUse">
      <stop offset="0" stop-color="#2DD4BF"/>
      <stop offset="0.46" stop-color="#0F766E"/>
      <stop offset="1" stop-color="#38BDF8"/>
    </linearGradient>
  </defs>
  <path d="M375.99,245.3c-3.22,5.81-7.3,10.56-11.96,15.65-18.15,19.8-44.49,30.27-72.01,27.03-13.59-1.57-25.74-5.88-36.47-12.97-5.39-3.55-12.68-10.05-21.91-19.49-11.46-11.72-20.24-20.62-26.35-26.68-7.42-7.36-14.04-13.54-21.09-20.9-3.93-4.1-8.09-8.27-12.48-12.51-6.02-5.81-11.17-11.84-16.62-16.91-1.34-1.25-5.81-5.76-13.36-13.55-5.52-5.69-10.28-9.77-14.27-12.24-10.61-6.57-22.64-9.13-36.1-7.68-12.77,1.65-23.66,6.91-32.65,15.79-12.33,12.66-17.62,27.46-15.85,44.39,2.01,19.16,11.69,33.93,29.03,44.31,22.26,10.34,48.15,7.14,65.35-10.03,12.66-12.63,21.58-21.63,26.77-27,.34-.36.93-.36,1.27-.01l21.16,21.09c.5.5.53,1.27.08,1.8-.78.93-3.2,3.28-7.27,7.06-9.12,8.43-18.86,19.42-24.39,24.39-24.3,21.86-60.01,28.13-90.63,14.85-2.3-.91-4.52-1.94-6.65-3.11-29.41-16.05-47.29-45.15-47.53-77.6-.1-14.64,2.65-28.07,9.87-41.36,4.89-8.99,11.15-17.11,18.77-24.37,13.86-12.92,30.49-20.71,49.86-23.37,20.52-2.42,40.58,2.93,57.1,14.55,4.42,3.11,10.06,8.12,16.95,15.02.41.4,20.67,20.8,60.8,61.2,3.2,3.22,13.81,13.82,31.86,31.81,6.13,6.11,11.15,10.32,15.07,12.64,8.49,5.03,18.02,7.75,28.55,8.17,19.68-.14,36.36-9.1,46.12-25.26,15.34-25.4,10.4-56.12-13.42-74.88-3.3-2.6-7.17-4.73-11.62-6.38-8.02-3.53-14.32-3.81-22.94-3.68-10.41.17-19.86,3.53-28.4,9.33-2.07,1.41-4.89,3.85-8.47,7.32-9.3,9.05-18.06,18.27-27.79,27.76-.17.17-.46.17-.63,0l-21.4-21.35c-.34-.33-.35-.87-.01-1.23,6.53-6.81,17.55-17.88,33.08-33.22,1.93-1.91,4.81-4.19,8.66-6.84,26.54-18.37,59.54-20.82,88.09-5.24,44.68,26.07,58.16,79.81,33.83,123.66ZM101.84,155.26l43.86,43.74c.46.46.45,1.19-.01,1.64l-43.78,42.64c-.23.23-.6.22-.81-.01l-6.35-6.8-34.55-36.32c-.29-.3-.29-.77,0-1.07l24.36-25.45,16.17-18.34c.28-.32.8-.35,1.11-.04ZM102.69,183.82l-8.45,8.79-6.57,6.53c-.14.13-.14.35,0,.49l12.26,12.17,2.96,2.81c.25.24.63.24.88,0l15.25-14.85c.19-.19.19-.5,0-.69l-15.29-15.24c-.28-.28-.76-.28-1.03.01Z" fill="url(#xsvo-infinite)"/>
</svg>